<svg width="256" height="256" viewBox="0 0 256 256" fill="none" xmlns="http://www.w3.org/2000/svg">
<path d="M28.5547 150.195L22.8438 183H0.132812L16.8672 86.3125L51.5977 86.3789C62.3555 86.3789 70.8112 89.3672 76.9648 95.3438C83.1628 101.32 85.8854 109.068 85.1328 118.586C84.6016 125.094 82.5208 130.738 78.8906 135.52C75.2604 140.301 70.457 143.953 64.4805 146.477C58.5482 149 51.8854 150.262 44.4922 150.262L28.5547 150.195ZM31.6758 132.199L45.3555 132.332C51.1107 132.199 55.5156 130.34 58.5703 126.754C61.625 123.124 62.8424 118.674 62.2227 113.406C61.8685 110.706 60.8281 108.581 59.1016 107.031C57.4193 105.438 55.1836 104.552 52.3945 104.375L36.5234 104.309L31.6758 132.199ZM167.742 150.062C167.167 156.836 164.931 162.857 161.035 168.125C157.184 173.393 152.092 177.444 145.762 180.277C139.475 183.111 132.658 184.461 125.309 184.328C115.215 184.107 107.268 180.853 101.469 174.566C95.6693 168.28 92.5039 159.758 91.9727 149C91.5742 141.828 92.349 134.014 94.2969 125.559C96.2891 117.103 99.4987 109.754 103.926 103.512C108.397 97.2253 113.643 92.5326 119.664 89.4336C125.729 86.2904 132.348 84.7852 139.52 84.918C150.056 85.0951 158.379 88.2604 164.488 94.4141C170.642 100.568 173.984 109.046 174.516 119.848L151.871 119.781C151.96 113.893 150.897 109.688 148.684 107.164C146.47 104.641 142.973 103.29 138.191 103.113C126.238 102.715 118.956 112.012 116.344 131.004C115.148 139.592 114.551 145.724 114.551 149.398C114.329 160.289 118.358 165.889 126.637 166.199C131.993 166.376 136.266 165.07 139.453 162.281C142.641 159.448 144.677 155.464 145.562 150.328L167.742 150.062ZM239.395 142.027H203.867L199.816 165.07H241.852L238.73 183H173.984L190.719 86.3125H255.598L252.477 104.309H210.375L206.789 124.695H242.383L239.395 142.027Z" fill="black"/>
<path d="M28.5547 150.195L22.8438 183H0.132812L16.8672 86.3125L51.5977 86.3789C62.3555 86.3789 70.8112 89.3672 76.9648 95.3438C83.1628 101.32 85.8854 109.068 85.1328 118.586C84.6016 125.094 82.5208 130.738 78.8906 135.52C75.2604 140.301 70.457 143.953 64.4805 146.477C58.5482 149 51.8854 150.262 44.4922 150.262L28.5547 150.195ZM31.6758 132.199L45.3555 132.332C51.1107 132.199 55.5156 130.34 58.5703 126.754C61.625 123.124 62.8424 118.674 62.2227 113.406C61.8685 110.706 60.8281 108.581 59.1016 107.031C57.4193 105.438 55.1836 104.552 52.3945 104.375L36.5234 104.309L31.6758 132.199ZM167.742 150.062C167.167 156.836 164.931 162.857 161.035 168.125C157.184 173.393 152.092 177.444 145.762 180.277C139.475 183.111 132.658 184.461 125.309 184.328C115.215 184.107 107.268 180.853 101.469 174.566C95.6693 168.28 92.5039 159.758 91.9727 149C91.5742 141.828 92.349 134.014 94.2969 125.559C96.2891 117.103 99.4987 109.754 103.926 103.512C108.397 97.2253 113.643 92.5326 119.664 89.4336C125.729 86.2904 132.348 84.7852 139.52 84.918C150.056 85.0951 158.379 88.2604 164.488 94.4141C170.642 100.568 173.984 109.046 174.516 119.848L151.871 119.781C151.96 113.893 150.897 109.688 148.684 107.164C146.47 104.641 142.973 103.29 138.191 103.113C126.238 102.715 118.956 112.012 116.344 131.004C115.148 139.592 114.551 145.724 114.551 149.398C114.329 160.289 118.358 165.889 126.637 166.199C131.993 166.376 136.266 165.07 139.453 162.281C142.641 159.448 144.677 155.464 145.562 150.328L167.742 150.062ZM239.395 142.027H203.867L199.816 165.07H241.852L238.73 183H173.984L190.719 86.3125H255.598L252.477 104.309H210.375L206.789 124.695H242.383L239.395 142.027Z" fill="url(#paint0_linear)"/>
<defs>
<linearGradient id="paint0_linear" x1="128" y1="57" x2="136.948" y2="188.188" gradientUnits="userSpaceOnUse">
<stop stop-color="#00D1FF"/>
<stop offset="1" stop-color="#4563FF"/>
</linearGradient>
</defs>
</svg>
