<svg width="256" height="256" viewBox="0 0 256 256" fill="none" xmlns="http://www.w3.org/2000/svg">
<path d="M62.9922 155.914C63.8516 151.5 61.4688 148.082 55.8438 145.66L46.2344 141.676C32.7578 135.621 26.3516 127.379 27.0156 116.949C27.2891 112.184 28.9297 107.945 31.9375 104.234C34.9453 100.484 39.1055 97.5742 44.418 95.5039C49.7305 93.4336 55.5312 92.4375 61.8203 92.5156C70.2578 92.6719 77.0352 95.1328 82.1523 99.8984C87.3086 104.664 89.8477 111.051 89.7695 119.059H69.8477C69.9648 115.777 69.2617 113.16 67.7383 111.207C66.2539 109.215 63.793 108.18 60.3555 108.102C56.9961 108.023 54.0273 108.805 51.4492 110.445C48.8711 112.086 47.3477 114.293 46.8789 117.066C46.1367 120.973 49.0273 124.176 55.5508 126.676C62.1133 129.176 66.8789 131.324 69.8477 133.121C79.1836 138.707 83.5586 146.246 82.9727 155.738C82.6602 160.66 81.0781 164.977 78.2266 168.688C75.375 172.398 71.4102 175.27 66.332 177.301C61.293 179.332 55.6289 180.309 49.3398 180.23C44.7305 180.152 40.4531 179.43 36.5078 178.062C32.5625 176.695 29.1836 174.703 26.3711 172.086C20.668 166.812 17.9336 159.879 18.168 151.285L38.2656 151.344C38.0312 155.719 38.8711 159.039 40.7852 161.305C42.6992 163.531 45.9219 164.645 50.4531 164.645C53.8125 164.645 56.6055 163.883 58.832 162.359C61.0977 160.797 62.4844 158.648 62.9922 155.914ZM161.078 149.938C160.57 155.914 158.598 161.227 155.16 165.875C151.762 170.523 147.27 174.098 141.684 176.598C136.137 179.098 130.121 180.289 123.637 180.172C114.73 179.977 107.719 177.105 102.602 171.559C97.4844 166.012 94.6914 158.492 94.2227 149C93.8711 142.672 94.5547 135.777 96.2734 128.316C98.0312 120.855 100.863 114.371 104.77 108.863C108.715 103.316 113.344 99.1758 118.656 96.4414C124.008 93.668 129.848 92.3398 136.176 92.457C145.473 92.6133 152.816 95.4062 158.207 100.836C163.637 106.266 166.586 113.746 167.055 123.277L147.074 123.219C147.152 118.023 146.215 114.312 144.262 112.086C142.309 109.859 139.223 108.668 135.004 108.512C124.457 108.16 118.031 116.363 115.727 133.121C114.672 140.699 114.145 146.109 114.145 149.352C113.949 158.961 117.504 163.902 124.809 164.176C129.535 164.332 133.305 163.18 136.117 160.719C138.93 158.219 140.727 154.703 141.508 150.172L161.078 149.938ZM224.301 142.848H192.953L189.379 163.18H226.469L223.715 179H166.586L181.352 93.6875H238.598L235.844 109.566H198.695L195.531 127.555H226.938L224.301 142.848Z" fill="black"/>
<path d="M62.9922 155.914C63.8516 151.5 61.4688 148.082 55.8438 145.66L46.2344 141.676C32.7578 135.621 26.3516 127.379 27.0156 116.949C27.2891 112.184 28.9297 107.945 31.9375 104.234C34.9453 100.484 39.1055 97.5742 44.418 95.5039C49.7305 93.4336 55.5312 92.4375 61.8203 92.5156C70.2578 92.6719 77.0352 95.1328 82.1523 99.8984C87.3086 104.664 89.8477 111.051 89.7695 119.059H69.8477C69.9648 115.777 69.2617 113.16 67.7383 111.207C66.2539 109.215 63.793 108.18 60.3555 108.102C56.9961 108.023 54.0273 108.805 51.4492 110.445C48.8711 112.086 47.3477 114.293 46.8789 117.066C46.1367 120.973 49.0273 124.176 55.5508 126.676C62.1133 129.176 66.8789 131.324 69.8477 133.121C79.1836 138.707 83.5586 146.246 82.9727 155.738C82.6602 160.66 81.0781 164.977 78.2266 168.688C75.375 172.398 71.4102 175.27 66.332 177.301C61.293 179.332 55.6289 180.309 49.3398 180.23C44.7305 180.152 40.4531 179.43 36.5078 178.062C32.5625 176.695 29.1836 174.703 26.3711 172.086C20.668 166.812 17.9336 159.879 18.168 151.285L38.2656 151.344C38.0312 155.719 38.8711 159.039 40.7852 161.305C42.6992 163.531 45.9219 164.645 50.4531 164.645C53.8125 164.645 56.6055 163.883 58.832 162.359C61.0977 160.797 62.4844 158.648 62.9922 155.914ZM161.078 149.938C160.57 155.914 158.598 161.227 155.16 165.875C151.762 170.523 147.27 174.098 141.684 176.598C136.137 179.098 130.121 180.289 123.637 180.172C114.73 179.977 107.719 177.105 102.602 171.559C97.4844 166.012 94.6914 158.492 94.2227 149C93.8711 142.672 94.5547 135.777 96.2734 128.316C98.0312 120.855 100.863 114.371 104.77 108.863C108.715 103.316 113.344 99.1758 118.656 96.4414C124.008 93.668 129.848 92.3398 136.176 92.457C145.473 92.6133 152.816 95.4062 158.207 100.836C163.637 106.266 166.586 113.746 167.055 123.277L147.074 123.219C147.152 118.023 146.215 114.312 144.262 112.086C142.309 109.859 139.223 108.668 135.004 108.512C124.457 108.16 118.031 116.363 115.727 133.121C114.672 140.699 114.145 146.109 114.145 149.352C113.949 158.961 117.504 163.902 124.809 164.176C129.535 164.332 133.305 163.18 136.117 160.719C138.93 158.219 140.727 154.703 141.508 150.172L161.078 149.938ZM224.301 142.848H192.953L189.379 163.18H226.469L223.715 179H166.586L181.352 93.6875H238.598L235.844 109.566H198.695L195.531 127.555H226.938L224.301 142.848Z" fill="url(#paint0_linear)"/>
<defs>
<linearGradient id="paint0_linear" x1="128.5" y1="67" x2="138.667" y2="198.009" gradientUnits="userSpaceOnUse">
<stop stop-color="#4200FF"/>
<stop offset="1" stop-color="#4563FF"/>
</linearGradient>
</defs>
</svg>
